<svg width="35" height="35" viewBox="0 0 35 35" fill="none" xmlns="http://www.w3.org/2000/svg">
<path fill-rule="evenodd" clip-rule="evenodd" d="M34.5363 21.0686C33.341 26.8194 29.429 31.3099 24.4193 33.4783L29.3425 9.79087L5.65539 4.86767C9.64042 1.13695 15.3177 -0.661643 21.0685 0.53361C30.4581 2.48517 36.4878 11.679 34.5363 21.0686ZM16.5911 34.8764C18.626 34.9897 20.6204 34.7408 22.5002 34.1781L24.6388 23.8887C26.1025 16.8465 21.5802 9.9511 14.538 8.48743L4.24879 6.3489C2.98353 7.849 1.9604 9.57923 1.25341 11.4911L20.6152 15.5152L16.5911 34.8764ZM14.8558 34.6922C14.5713 34.6475 14.2864 34.5956 14.0013 34.5364C4.61169 32.5848 -1.41803 23.391 0.533528 14.0014C0.592745 13.7165 0.658629 13.4346 0.730985 13.1561L5.81063 14.2118C12.8528 15.6755 17.3751 22.5709 15.9114 29.6131L14.8558 34.6922Z" fill="#5329FF"/>
</svg>
